HIERARCHY
ROOT Hips
{
  OFFSET 51.0805 51.3086 7.66484
  CHANNELS 6 Xposition Yposition Zposition Zrotation Xrotation Yrotation
  JOINT spine
  {
    OFFSET 0 8.81704 0.507024
    CHANNELS 3 Zrotation Xrotation Yrotation
    JOINT spine1
    {
      OFFSET 0 10.7766 0
      CHANNELS 3 Zrotation Xrotation Yrotation
      JOINT spine2
      {
        OFFSET 0 10.3259 0
        CHANNELS 3 Zrotation Xrotation Yrotation
        JOINT Neck
        {
          OFFSET 0 26.511 1.26395
          CHANNELS 3 Zrotation Xrotation Yrotation
          JOINT Head
          {
            OFFSET 0 8.00966 0
            CHANNELS 3 Zrotation Xrotation Yrotation
            End Site
            {
              OFFSET 0 19.3879 -6.39386
            }
          }
        }
        JOINT RightShoulder
        {
          OFFSET -4.34795 11.1512 -0.605422
          CHANNELS 3 Zrotation Xrotation Yrotation
          JOINT RightArm
          {
            OFFSET 0 14.6258 0
            CHANNELS 3 Zrotation Xrotation Yrotation
            JOINT RightArmRoll
            {
              OFFSET 0 7.3834 0
              CHANNELS 3 Zrotation Xrotation Yrotation
              JOINT RightForeArm
              {
                OFFSET 0 21.5052 0
                CHANNELS 3 Zrotation Xrotation Yrotation
                JOINT RightForeArmRoll
                {
                  OFFSET 0 8.28532 0
                  CHANNELS 3 Zrotation Xrotation Yrotation
                  JOINT RightHand
                  {
                    OFFSET 0 16.6268 0
                    CHANNELS 3 Zrotation Xrotation Yrotation
                    End Site
                    {
                      OFFSET 0 0 0
                    }
                  }
                }
              }
            }
          }
        }
        JOINT LeftShoulder
        {
          OFFSET 4.34795 11.1512 -0.605422
          CHANNELS 3 Zrotation Xrotation Yrotation
          JOINT LeftArm
          {
            OFFSET 0 14.6258 0
            CHANNELS 3 Zrotation Xrotation Yrotation
            JOINT LeftArmRoll
            {
              OFFSET 0 7.3834 0
              CHANNELS 3 Zrotation Xrotation Yrotation
              JOINT LeftForeArm
              {
                OFFSET 0 21.5052 0
                CHANNELS 3 Zrotation Xrotation Yrotation
                JOINT LeftForeArmRoll
                {
                  OFFSET 0 8.28532 0
                  CHANNELS 3 Zrotation Xrotation Yrotation
                  JOINT LeftHand
                  {
                    OFFSET 0 16.6268 0
                    CHANNELS 3 Zrotation Xrotation Yrotation
                    End Site
                    {
                      OFFSET 0 0 0
                    }
                  }
                }
              }
            }
          }
        }
      }
    }
  }
  JOINT RightUpLeg
  {
    OFFSET -7.8151 -1.43309 -1.20217
    CHANNELS 3 Zrotation Xrotation Yrotation
    JOINT RightUpLegRoll
    {
      OFFSET 0 19.4959 0
      CHANNELS 3 Zrotation Xrotation Yrotation
      JOINT RightLeg
      {
        OFFSET 0 -24.1427 0
        CHANNELS 3 Zrotation Xrotation Yrotation
        JOINT RightLegRoll
        {
          OFFSET 0 24.2217 0
          CHANNELS 3 Zrotation Xrotation Yrotation
          JOINT RightFoot
          {
            OFFSET 0 20.1605 0
            CHANNELS 3 Zrotation Xrotation Yrotation
            JOINT RightToeBase
            {
              OFFSET 0 16.8532 0
              CHANNELS 3 Zrotation Xrotation Yrotation
              End Site
              {
                OFFSET 0.00714343 8.16187 -0.94078
              }
            }
          }
        }
      }
    }
  }
  JOINT LeftUpLeg
  {
    OFFSET 7.8151 -1.43309 -1.20217
    CHANNELS 3 Zrotation Xrotation Yrotation
    JOINT LeftUpLegRoll
    {
      OFFSET 0 19.496 0
      CHANNELS 3 Zrotation Xrotation Yrotation
      JOINT LeftLeg
      {
        OFFSET 0 24.1426 0
        CHANNELS 3 Zrotation Xrotation Yrotation
        JOINT LeftLegRoll
        {
          OFFSET 0 24.4456 0
          CHANNELS 3 Zrotation Xrotation Yrotation
          JOINT LeftFoot
          {
            OFFSET 0 19.9366 0
            CHANNELS 3 Zrotation Xrotation Yrotation
            JOINT LeftToeBase
            {
              OFFSET 0 16.8532 0
              CHANNELS 3 Zrotation Xrotation Yrotation
              End Site
              {
                OFFSET -0.0320138 8.16187 -0.940781
              }
            }
          }
        }
      }
    }
  }
}
MOTION
Frames: 14
Frame Time: 0.00208333
50.7321 51.3278 10.7938 -2.82968 6.66291 2.01815 0.578235 3.09102 0.201965 1.15624 10.1861 0.297826 1.15649 11.831 0.278788 -6.46886 39.9633 6.28342 -7.97393 0.314408 2.37814 53.6845 -1.74511 -0.574476 101.717 34.506 -31.7099 2.35335e-005 -8.3594e-007 3.1461e-006 19.9331 72.3562 -16.3492 -2.91386e-006 1.02382e-006 -3.00836 8.02894 -4.95147 0.697682 -67.431 0.471885 0.841657 -102.748 29.3561 21.6244 -8.02062e-007 -1.62912e-007 -2.51927e-007 -14.259 75.5138 14.42 5.58675e-006 7.42893e-007 3 -8.02887 -4.95146 -0.697689 51.8639 71.7963 133.741 180 7.01498e-015 178.727 -5.53617 72.806 5.8257 -4.35369e-006 -2.58604e-006 1.92114 -27.8297 74.8738 28.1699 8.13349 25.2328 -3.48646 -29.1207 75.2644 -151.165 4.54188e-006 -4.6773e-006 -1.27937 165.922 -68.9318 161.707 7.68121e-007 -5.91167e-006 -2.44596 28.4073 77.1741 -31.9173 -8.12684 25.2345 3.48379 
50.7261 51.3427 10.7617 -2.83916 6.48653 2.00094 0.581754 3.09905 0.202839 1.16336 10.2022 0.29884 1.16363 11.8471 0.279682 -6.51456 40.0298 6.32198 -7.9803 0.30933 2.38977 53.6896 -1.70739 -0.548853 101.861 34.537 -31.5253 2.35335e-005 -8.3594e-007 3.1461e-006 20.0128 72.0865 -16.33 -2.91386e-006 1.02382e-006 -3.00836 8.02894 -4.95147 0.697682 -67.4678 0.458818 0.852461 -102.737 29.4547 21.5817 -8.02062e-007 -1.62912e-007 -2.51927e-007 -14.337 75.2961 14.4198 5.58675e-006 7.42893e-007 3 -8.02887 -4.95146 -0.697689 52.3058 71.9306 133.29 180 7.01498e-015 178.727 -5.58255 72.8754 5.86646 -4.35369e-006 -2.58604e-006 1.91998 -27.7292 74.8252 28.0764 8.13349 25.2328 -3.48646 -29.5072 75.4201 -150.762 4.54188e-006 -4.6773e-006 -1.28501 165.862 -68.9746 161.641 7.68121e-007 -5.91167e-006 -2.44772 28.3556 77.1423 -31.8478 -8.12684 25.2345 3.48379 
50.7409 51.3711 10.718 -2.8485 6.31078 1.98251 0.585198 3.10645 0.203069 1.17038 10.217 0.298577 1.17068 11.8619 0.279298 -6.57223 40.0994 6.36826 -7.98241 0.298873 2.40331 53.6694 -1.66672 -0.518453 102.04 34.5611 -31.3434 2.35335e-005 -8.3594e-007 3.1461e-006 20.0753 71.8005 -16.2924 -2.91386e-006 1.02382e-006 -3.00836 8.02894 -4.95147 0.697682 -67.4907 0.437401 0.865942 -102.747 29.5487 21.5469 -8.02062e-007 -1.62912e-007 -2.51927e-007 -14.405 75.0714 14.4086 5.58675e-006 7.42893e-007 3 -8.02887 -4.95146 -0.697689 52.7496 72.0628 132.836 180 7.01497e-015 178.726 -5.62652 72.9504 5.9029 -4.35369e-006 -2.58604e-006 1.91903 -27.621 74.7703 27.9727 8.13349 25.2328 -3.48646 -29.9023 75.5737 -150.351 4.54188e-006 -4.6773e-006 -1.29072 165.801 -69.0203 161.573 7.68121e-007 -5.91167e-006 -2.44943 28.2967 77.1075 -31.7713 -8.12684 25.2345 3.48379 
50.7315 51.3957 10.6705 -2.85761 6.13575 1.96308 0.588573 3.1132 0.20274 1.17732 10.2305 0.297206 1.17766 11.8754 0.277805 -6.64039 40.1715 6.42116 -7.98078 0.283816 2.41838 53.6264 -1.62386 -0.484091 102.252 34.579 -31.1643 2.35335e-005 -8.3594e-007 3.1461e-006 20.1229 71.5001 -16.2389 -2.91386e-006 1.02382e-006 -3.00836 8.02894 -4.95147 0.697682 -67.5009 0.408635 0.881729 -102.775 29.6382 21.5191 -8.02062e-007 -1.62912e-007 -2.51927e-007 -14.4641 74.84 14.3878 5.58675e-006 7.42893e-007 3 -8.02887 -4.95146 -0.697689 53.1949 72.1927 132.381 180 7.01497e-015 178.725 -5.66837 73.03 5.93564 -4.35369e-006 -2.58604e-006 1.91826 -27.507 74.7101 27.8608 8.13349 25.2328 -3.48646 -30.3056 75.7251 -149.931 4.54188e-006 -4.6773e-006 -1.29648 165.738 -69.0681 161.504 7.68121e-007 -5.91167e-006 -2.45111 28.2321 77.0703 -31.6892 -8.12684 25.2345 3.48379 
50.7542 51.411 10.6466 -2.86638 5.96152 1.94286 0.591885 3.11929 0.201936 1.18417 10.2427 0.294897 1.18457 11.8876 0.275373 -6.71756 40.2456 6.47958 -7.97593 0.264936 2.43462 53.5634 -1.57958 -0.446583 102.492 34.5913 -30.9881 2.35335e-005 -8.3594e-007 3.1461e-006 20.1579 71.1871 -16.1719 -2.91386e-006 1.02382e-006 -3.00836 8.02894 -4.95147 0.697682 -67.4996 0.373523 0.899447 -102.821 29.7236 21.4977 -8.02062e-007 -1.62912e-007 -2.51927e-007 -14.5156 74.6025 14.3584 5.58675e-006 7.42893e-007 3 -8.02887 -4.95146 -0.697689 53.6414 72.3201 131.926 180 7.01497e-015 178.725 -5.70839 73.1132 5.96529 -4.35369e-006 -2.58604e-006 1.91769 -27.3888 74.6455 27.7426 8.13349 25.2328 -3.48646 -30.7165 75.8744 -149.505 4.54188e-006 -4.6773e-006 -1.30228 165.674 -69.1174 161.434 7.68121e-007 -5.91167e-006 -2.45275 28.1629 77.0311 -31.6028 -8.12684 25.2345 3.48379 
50.7531 51.4195 10.617 -2.87471 5.78818 1.92204 0.595141 3.12471 0.200743 1.19093 10.2535 0.291819 1.1914 11.8984 0.272172 -6.80222 40.321 6.54242 -7.96839 0.243013 2.45166 53.483 -1.53465 -0.406748 102.757 34.5989 -30.8148 2.35335e-005 -8.3594e-007 3.1461e-006 20.1823 70.8631 -16.0938 -2.91386e-006 1.02382e-006 -3.00836 8.02894 -4.95147 0.697682 -67.488 0.333067 0.918726 -102.881 29.8051 21.4821 -8.02062e-007 -1.62912e-007 -2.51927e-007 -14.5602 74.3594 14.3216 5.58675e-006 7.42893e-007 3 -8.02887 -4.95146 -0.697689 54.0887 72.4451 131.469 180 7.01497e-015 178.724 -5.74685 73.1987 5.99246 -4.35369e-006 -2.58604e-006 1.9173 -27.2681 74.5774 27.6199 8.13349 25.2328 -3.48646 -31.1347 76.0213 -149.072 4.54188e-006 -4.6773e-006 -1.30808 165.609 -69.1676 161.365 7.68121e-007 -5.91167e-006 -2.45434 28.0907 76.9905 -31.5136 -8.12684 25.2345 3.48379 
50.7699 51.4375 10.5578 -2.88249 5.61581 1.90086 0.598346 3.12945 0.199244 1.19762 10.263 0.288142 1.19816 11.9079 0.268372 -6.89287 40.3971 6.60857 -7.95869 0.218823 2.46913 53.388 -1.48983 -0.365399 103.043 34.6025 -30.6446 2.35335e-005 -8.3594e-007 3.1461e-006 20.1981 70.5301 -16.0067 -2.91386e-006 1.02382e-006 -3.00836 8.02894 -4.95147 0.697682 -67.4671 0.28827 0.93919 -102.956 29.883 21.4715 -8.02062e-007 -1.62912e-007 -2.51927e-007 -14.5992 74.1111 14.2784 5.58675e-006 7.42893e-007 3 -8.02887 -4.95146 -0.697689 54.5364 72.5673 131.013 180 7.01497e-015 178.723 -5.78405 73.2857 6.01777 -4.35369e-006 -2.58604e-006 1.91709 -27.1466 74.5069 27.4945 8.13349 25.2328 -3.48646 -31.5596 76.166 -148.633 4.54188e-006 -4.6773e-006 -1.31387 165.545 -69.2181 161.295 7.68121e-007 -5.91167e-006 -2.45587 28.0165 76.949 -31.4227 -8.12684 25.2345 3.48379 
50.7717 51.4693 10.5121 -2.8896 5.44449 1.87952 0.601505 3.1335 0.197523 1.20423 10.271 0.284036 1.20484 11.9159 0.264143 -6.98799 40.4735 6.6769 -7.94735 0.193146 2.48666 53.2809 -1.4459 -0.323355 103.346 34.6028 -30.4774 2.35335e-005 -8.3594e-007 3.1461e-006 20.2069 70.1897 -15.9127 -2.91386e-006 1.02382e-006 -3.00836 8.02894 -4.95147 0.697682 -67.4382 0.240133 0.960468 -103.042 29.9576 21.4654 -8.02062e-007 -1.62912e-007 -2.51927e-007 -14.6332 73.8581 14.2297 5.58675e-006 7.42893e-007 3 -8.02887 -4.95146 -0.697689 54.984 72.6868 130.557 180 7.01497e-015 178.723 -5.82026 73.373 6.04183 -4.35369e-006 -2.58604e-006 1.91705 -27.0258 74.4349 27.3681 8.13349 25.2328 -3.48646 -31.9905 76.3082 -148.189 4.54188e-006 -4.6773e-006 -1.31962 165.481 -69.2683 161.226 7.68121e-007 -5.91167e-006 -2.45734 27.9418 76.9072 -31.3316 -8.12684 25.2345 3.48379 
50.7774 51.4868 10.4725 -2.89593 5.27431 1.85823 0.604626 3.13684 0.195667 1.21078 10.2777 0.279671 1.21146 11.9226 0.259655 -7.08604 40.5494 6.74629 -7.93491 0.166759 2.50387 53.1645 -1.40362 -0.28143 103.664 34.6006 -30.3134 2.35335e-005 -8.3594e-007 3.1461e-006 20.2105 69.8437 -15.8137 -2.91386e-006 1.02382e-006 -3.00836 8.02894 -4.95147 0.697682 -67.4025 0.18966 0.982187 -103.138 30.029 21.4629 -8.02062e-007 -1.62912e-007 -2.51927e-007 -14.6633 73.6009 14.1765 5.58675e-006 7.42893e-007 3 -8.02887 -4.95146 -0.697689 55.4313 72.8034 130.101 180 7.01496e-015 178.722 -5.85579 73.4594 6.06526 -4.35369e-006 -2.58604e-006 1.91717 -26.9072 74.3622 27.2423 8.13349 25.2328 -3.48646 -32.427 76.4479 -147.74 4.54188e-006 -4.6773e-006 -1.32531 165.419 -69.3175 161.159 7.68121e-007 -5.91167e-006 -2.45875 27.8677 76.8655 -31.2414 -8.12684 25.2345 3.48379 
50.7807 51.508 10.4262 -2.90136 5.10535 1.8372 0.607714 3.13947 0.193759 1.21725 10.2829 0.275215 1.21802 11.9278 0.255077 -7.18548 40.6244 6.8156 -7.9219 0.14044 2.52039 53.0414 -1.36376 -0.24044 103.992 34.5966 -30.1525 2.35335e-005 -8.3594e-007 3.1461e-006 20.2102 69.4939 -15.7112 -2.91386e-006 1.02382e-006 -3.00836 8.02894 -4.95147 0.697682 -67.361 0.137852 1.00397 -103.243 30.0977 21.4635 -8.02062e-007 -1.62912e-007 -2.51927e-007 -14.6902 73.3401 14.1197 5.58675e-006 7.42893e-007 3 -8.02887 -4.95146 -0.697689 55.8776 72.917 129.647 180 7.01496e-015 178.721 -5.89094 73.5441 6.08869 -4.35369e-006 -2.58604e-006 1.91746 -26.7923 74.2899 27.1189 8.13349 25.2328 -3.48646 -32.8683 76.5852 -147.288 4.54188e-006 -4.6773e-006 -1.33091 165.357 -69.3652 161.093 7.68121e-007 -5.91167e-006 -2.46009 27.7954 76.8244 -31.1535 -8.12684 25.2345 3.48379 
50.8041 51.5124 10.4094 -2.90576 4.93771 1.81664 0.610774 3.14137 0.191883 1.22366 10.2867 0.270839 1.2245 11.9316 0.250581 -7.28475 40.6978 6.8837 -7.90884 0.114966 2.53587 52.9145 -1.32709 -0.201202 104.327 34.5917 -29.9949 2.35335e-005 -8.3594e-007 3.1461e-006 20.2074 69.1421 -15.607 -2.91386e-006 1.02382e-006 -3.00836 8.02894 -4.95147 0.697682 -67.3151 0.0857105 1.02546 -103.355 30.1638 21.4665 -8.02062e-007 -1.62912e-007 -2.51927e-007 -14.7146 73.0761 14.06 5.58675e-006 7.42893e-007 3 -8.02887 -4.95146 -0.697689 56.3226 73.0275 129.195 180 7.01496e-015 178.72 -5.92601 73.6257 6.11276 -4.35369e-006 -2.58604e-006 1.9179 -26.6824 74.219 26.9992 8.13349 25.2328 -3.48646 -33.3138 76.72 -146.833 4.54188e-006 -4.6773e-006 -1.33641 165.298 -69.4108 161.03 7.68121e-007 -5.91167e-006 -2.46136 27.726 76.7846 -31.0688 -8.12684 25.2345 3.48379 
50.7993 51.52 10.3726 -2.90903 4.77145 1.79676 0.613812 3.14254 0.190125 1.23 10.2891 0.266713 1.23092 11.9339 0.246336 -7.38228 40.7692 6.94942 -7.89629 0.0911164 2.54992 52.7862 -1.29437 -0.16453 104.664 34.5865 -29.8405 2.35335e-005 -8.3594e-007 3.1461e-006 20.2033 68.7901 -15.5023 -2.91386e-006 1.02382e-006 -3.00836 8.02894 -4.95147 0.697682 -67.2659 0.0342389 1.04626 -103.472 30.2277 21.4711 -8.02062e-007 -1.62913e-007 -2.51927e-007 -14.7373 72.8094 13.9983 5.58675e-006 7.42893e-007 3 -8.02887 -4.95146 -0.697689 56.7655 73.1348 128.745 180 7.01496e-015 178.719 -5.96133 73.7034 6.1381 -4.35369e-006 -2.58604e-006 1.91849 -26.5789 74.1503 26.8849 8.13349 25.2328 -3.48646 -33.7626 76.8522 -146.376 4.54188e-006 -4.6773e-006 -1.34177 165.242 -69.4536 160.969 7.68121e-007 -5.91167e-006 -2.46255 27.6608 76.7464 -30.9887 -8.12684 25.2345 3.48379 
50.7961 51.5579 10.3269 -2.91102 4.60667 1.77778 0.616834 3.14296 0.188569 1.23629 10.2899 0.263007 1.23727 11.9348 0.242513 -7.4765 40.8379 7.01162 -7.88476 0.0696679 2.56217 52.6595 -1.26638 -0.131241 105.001 34.5818 -29.6894 2.35335e-005 -8.3594e-007 3.1461e-006 20.199 68.4396 -15.3985 -2.91386e-006 1.02382e-006 -3.00836 8.02894 -4.95147 0.697682 -67.2145 -0.0155612 1.06601 -103.592 30.2895 21.4767 -8.02062e-007 -1.62912e-007 -2.51927e-007 -14.7588 72.5404 13.9351 5.58675e-006 7.42893e-007 3 -8.02887 -4.95146 -0.697689 57.2061 73.2388 128.298 180 7.01495e-015 178.717 -5.99722 73.776 6.16537 -4.35369e-006 -2.58604e-006 1.91923 -26.4831 74.0849 26.7773 8.13349 25.2328 -3.48646 -34.2141 76.9818 -145.919 4.54188e-006 -4.6773e-006 -1.34699 165.188 -69.4931 160.912 7.68121e-007 -5.91167e-006 -2.46365 27.6008 76.7105 -30.9143 -8.12684 25.2345 3.48379 
50.8009 51.5805 10.2787 -2.91161 4.44345 1.75989 0.619845 3.14262 0.187299 1.24251 10.2892 0.259889 1.24355 11.9341 0.239281 -7.56581 40.9034 7.06912 -7.8748 0.0513986 2.57226 52.5369 -1.24388 -0.10215 105.334 34.5784 -29.5416 2.35335e-005 -8.3594e-007 3.1461e-006 20.1954 68.0925 -15.2968 -2.91386e-006 1.02382e-006 -3.00836 8.02894 -4.95147 0.697682 -67.1622 -0.0626878 1.08434 -103.714 30.3497 21.4826 -8.02062e-007 -1.62913e-007 -2.51927e-007 -14.7798 72.2698 13.8713 5.58675e-006 7.42893e-007 3 -8.02887 -4.95146 -0.697689 57.6435 73.3394 127.855 180 7.01495e-015 178.716 -6.03399 73.8423 6.1952 -4.35369e-006 -2.58604e-006 1.9201 -26.3962 74.0238 26.6779 8.13349 25.2328 -3.48646 -34.6674 77.1088 -145.461 4.54188e-006 -4.6773e-006 -1.35202 165.139 -69.5285 160.859 7.68121e-007 -5.91167e-006 -2.46467 27.5471 76.6774 -30.8467 -8.12684 25.2345 3.48379 
